<?xml version="1.0" encoding="UTF-8" standalone="no"?>
<svg
   width="50"
   height="50"
   viewBox="0 0 23.076924 23.076924"
   fill="none"
   stroke="currentColor"
   stroke-width="1"
   stroke-linecap="round"
   stroke-linejoin="round"
   class="lucide lucide-anchor-icon lucide-anchor"
   version="1.1"
   id="svg3"
   sodipodi:docname="system-update1.svg"
   inkscape:version="1.4.3 (0d15f75, 2025-12-25)"
   xml:space="preserve"
   xmlns:inkscape="http://www.inkscape.org/namespaces/inkscape"
   xmlns:sodipodi="http://sodipodi.sourceforge.net/DTD/sodipodi-0.dtd"
   xmlns="http://www.w3.org/2000/svg"
   xmlns:svg="http://www.w3.org/2000/svg"><defs
     id="defs3" /><sodipodi:namedview
     id="namedview3"
     pagecolor="#ffffff"
     bordercolor="#000000"
     borderopacity="0.25"
     inkscape:showpageshadow="2"
     inkscape:pageopacity="0.0"
     inkscape:pagecheckerboard="0"
     inkscape:deskcolor="#d1d1d1"
     showguides="true"
     inkscape:zoom="11.23"
     inkscape:cx="27.025824"
     inkscape:cy="25.86821"
     inkscape:window-width="1920"
     inkscape:window-height="1129"
     inkscape:window-x="2728"
     inkscape:window-y="311"
     inkscape:window-maximized="1"
     inkscape:current-layer="svg3"
     showgrid="false"><sodipodi:guide
       position="6.9423732,21.910822"
       orientation="0,-1"
       id="guide3"
       inkscape:locked="false" /><sodipodi:guide
       position="8.2440681,1.1921774"
       orientation="0,-1"
       id="guide4"
       inkscape:locked="false" /><sodipodi:guide
       position="1.1118645,16.514212"
       orientation="1,0"
       id="guide5"
       inkscape:locked="false" /><sodipodi:guide
       position="21.884747,15.456585"
       orientation="1,0"
       id="guide6"
       inkscape:locked="false" /><sodipodi:guide
       position="11.525424,11.822686"
       orientation="1,0"
       id="guide7"
       inkscape:locked="false" /><sodipodi:guide
       position="-2.0067797,11.524381"
       orientation="0,-1"
       id="guide8"
       inkscape:locked="false" /></sodipodi:namedview><g
     style="fill:none;stroke:currentColor;stroke-width:1.25;stroke-linecap:round;stroke-linejoin:round"
     id="g655"
     transform="matrix(1.0737032,0,0,1.0737032,-1.4342157,-1.4342157)"><path
       d="m 3,12 a 9,9 0 0 1 9,-9 9.75,9.75 0 0 1 6.74,2.74 L 21,8"
       id="path637" /><path
       d="M 21,3 V 8 H 16"
       id="path639" /><path
       d="M 21,12 A 9,9 0 0 1 12,21 9.75,9.75 0 0 1 5.26,18.26 L 3,16"
       id="path641" /><path
       d="M 8,16 H 3 v 5"
       id="path643" /></g><path
     d="M 7.2988313,13.366659 H 6.4928144 L 6.1724099,12.533106 H 4.7055594 L 4.4026771,13.366659 H 3.6166854 L 5.0459887,9.6970293 H 5.8294773 Z M 5.93461,11.914827 5.428972,10.553108 4.9333467,11.914827 Z m 2.2928929,1.451832 -1.0713517,-2.658353 h 0.7384316 l 0.5006317,1.356712 0.1451833,0.453071 q 0.057572,-0.172719 0.072589,-0.227786 0.035047,-0.112642 0.075092,-0.225285 L 9.1937157,10.708306 H 9.917127 l -1.0563305,2.658353 z m 2.1326901,0 V 9.6970293 h 0.72091 l 1.501894,2.4505927 V 9.6970293 h 0.68837 V 13.366659 H 12.527929 L 11.048562,10.97364 v 2.393019 z m 4.215321,-1.847329 -0.638306,-0.115146 q 0.107631,-0.385486 0.370466,-0.570721 0.262833,-0.185236 0.780986,-0.185236 0.470593,0 0.700884,0.112642 0.230292,0.110146 0.322907,0.282859 0.09514,0.170214 0.09514,0.628292 l -0.0076,0.821038 q 0,0.350442 0.03252,0.518153 0.03502,0.165208 0.127658,0.355448 h -0.695876 q -0.02753,-0.07011 -0.06761,-0.207761 -0.01755,-0.06254 -0.02503,-0.08259 -0.180228,0.175223 -0.385486,0.262832 -0.20526,0.08758 -0.438055,0.08758 -0.410516,0 -0.648316,-0.222781 -0.235299,-0.222782 -0.235299,-0.563211 0,-0.225285 0.107632,-0.400505 0.107632,-0.177722 0.300379,-0.270341 0.195246,-0.09514 0.560709,-0.165208 0.493122,-0.09265 0.683362,-0.172717 v -0.07011 q 0,-0.202756 -0.100129,-0.287862 -0.100129,-0.08758 -0.377977,-0.08758 -0.187736,0 -0.292869,0.0751 -0.105134,0.07261 -0.170214,0.257826 z m 0.941186,0.570719 q -0.135169,0.04508 -0.42804,0.107631 -0.292869,0.06255 -0.382984,0.122653 -0.137673,0.09764 -0.137673,0.247814 0,0.147688 0.110144,0.255323 0.110144,0.107632 0.280353,0.107632 0.190241,0 0.362958,-0.125157 0.127661,-0.09514 0.167712,-0.232795 0.02753,-0.09012 0.02753,-0.342934 z m 2.115169,1.27661 -1.071351,-2.658353 h 0.738431 l 0.500631,1.356712 0.145184,0.453071 q 0.05755,-0.172719 0.0726,-0.227786 0.03502,-0.112642 0.0751,-0.225285 l 0.505637,-1.356712 h 0.723413 l -1.056333,2.658353 z"
     id="text1"
     style="font-weight:bold;font-size:4.61894px;font-family:Arial;-inkscape-font-specification:'Arial, Bold';fill:#1a1a1a;stroke:#000000;stroke-width:0;paint-order:markers fill stroke"
     aria-label="AvNav" /></svg>
